<svg width="64" height="64" viewBox="18 20 48 44" fill="none" xmlns="http://www.w3.org/2000/svg">
  <defs>
    <linearGradient id="crownGold" x1="22" y1="22" x2="58" y2="56" gradientUnits="userSpaceOnUse">
      <stop offset="0" stop-color="#FFF7CC" />
      <stop offset="0.45" stop-color="#FCD34D" />
      <stop offset="1" stop-color="#D97706" />
    </linearGradient>
  </defs>
  <path
    d="M20 53.5L24 28.2C24.2 27 25.6 26.5 26.5 27.4L35.2 35.8C36.1 36.6 37.4 36.3 37.8 35.2L41.4 24.2C41.8 23 43.5 23 43.9 24.2L47.5 35.2C47.9 36.3 49.2 36.6 50.1 35.8L58.8 27.4C59.7 26.5 61.1 27 61.3 28.2L65.3 53.5C65.6 55.2 64.3 56.7 62.5 56.7H22.8C21 56.7 19.7 55.2 20 53.5Z"
    fill="url(#crownGold)"
  />
  <path
    d="M27 47.5L29.4 32.7L34.8 37.9C37.1 40.1 40.8 39.3 42 36.3L42.6 34.6L43.2 36.3C44.4 39.3 48.1 40.1 50.4 37.9L55.8 32.7L58.1 47.5H27Z"
    fill="#FFF6D3"
    fill-opacity="0.75"
  />
  <circle cx="33.5" cy="45.7" r="2.4" fill="#F59E0B" />
  <circle cx="42.5" cy="43.7" r="2.8" fill="#FDBA74" />
  <circle cx="51.5" cy="45.7" r="2.4" fill="#F59E0B" />
  <rect x="19.5" y="56.6" width="46.2" height="5.6" rx="2.8" fill="#B45309" />
</svg>
